<svg version="1" xmlns="http://www.w3.org/2000/svg" width="800" height="800" viewBox="0 0 600.000000 600.000000"><path d="M80.6 1.5C67.9 4.1 53.7 10 43 17.3c-6.6 4.5-19.6 17.3-24.6 24.3-6 8.3-13 23.3-15.6 33.4L.5 83.5v433l2.3 8.5c2.4 9.2 9.2 24.2 14.4 31.8 4.6 6.8 17.3 19.7 24.4 24.8 8.3 6 23.3 13 33.4 15.6l8.5 2.3h433l8.5-2.3c10.1-2.6 25.1-9.6 33.4-15.6 7.1-5.1 19.8-18 24.4-24.8 5.2-7.6 12-22.6 14.4-31.8l2.3-8.5v-433l-2.3-8.5c-2.4-9.2-9.2-24.2-14.4-31.8-4.6-6.8-17.3-19.7-24.4-24.8-8-5.7-23-12.8-32.9-15.6l-8-2.3-215-.2C123.9.2 86.3.4 80.6 1.5zM346 201.4v15.3l-10.9.6c-11.8.6-24 4-33.6 9.3-6.9 3.8-19.3 16.6-23.2 23.9-3.1 6-7.5 19.4-8.6 26.8l-.6 3.8 6.2-4.9c12.3-9.8 23.1-13.4 39.7-13.5 19-.1 30.1 4.3 42.6 16.7 12.5 12.5 18.3 26.1 20.4 47.7 1.1 11.2.2 23.7-2.5 33.9-6 23.3-23.5 41.9-45.4 48.4-14.5 4.3-33.7 4.1-47.5-.5-15.3-5.1-30.4-18.5-38.8-34.5-9.4-17.8-12.5-35.7-11.5-65.9 1-30.3 4.7-47.8 14.2-67 17.7-35.9 48.9-54.2 94.3-55.4l5.2-.1v15.4zM128.5 188c33.4 3.1 52.7 15.5 60.1 38.3 3.7 11.4 3.9 27.1.5 37-3.9 11.6-11.7 20.5-24.1 27.5-4.5 2.6-5.1 3.2-3.5 3.8 11.5 3.7 22.7 12.3 28.2 21.6 9.3 15.3 9.6 41 .8 59.3-4.4 9-9.9 15.3-18.3 20.8-8.7 5.7-15.5 8.5-26.7 11-8.2 1.8-13.5 2-57.7 2.4l-48.8.5V187h39.3c21.5 0 44.2.5 50.2 1zM533 259v72h28v30h-28v49h-37v-49H400.3l-.5-11.3-.6-11.2 48.1-75.8 48-75.7H533v72z"/><path d="M294.5 294.3c-9.2 3.1-17.5 9.5-22.7 17.6-2.7 4.3-2.8 5-2.8 16.5 0 6.7.7 15.1 1.5 18.8 2.9 14.1 10.7 25.8 20.6 31.3 5 2.8 6.2 3 15.4 3 11.6 0 16.5-1.8 23.3-8.6 8.3-8.4 12.2-19.5 12.2-34.6 0-15.6-3.3-25.8-11.1-34.7-6.4-7.2-12.5-9.9-23.4-10.3-5.6-.2-10.5.2-13 1zM77 249.4V281h23.8c24.8 0 29.7-.6 37.8-4.8 2.2-1.1 5.7-3.9 7.7-6.1 5.7-6.3 7-10.3 7.1-21.1.1-8.2-.3-10.2-2.5-15.1-3-6.3-7.2-10-15.1-13.2-4.9-2-7.4-2.2-32-2.5l-26.8-.3v31.5zM77 343.9V379h25.8c14.1 0 27.6-.5 30-1 10.5-2.5 18.9-8.8 23.3-17.8 2.1-4.1 2.4-6.1 2.4-16.2 0-11-.2-11.9-3.3-18.2-3.4-7-7.1-10.5-15-14.1-4.4-2.1-6.3-2.2-33.9-2.5l-29.3-.3v35zM466.7 284.4L438 330.5l28.6.3c15.8.1 28.9.1 29.1-.1.2-.2.2-21.1.1-46.4l-.3-46-28.8 46.1z"/></svg>